<?xml version="1.0" standalone="no"?>
<!DOCTYPE svg PUBLIC "-//W3C//DTD SVG 20010904//EN"
 "http://www.w3.org/TR/2001/REC-SVG-20010904/DTD/svg10.dtd">
<svg version="1.0" xmlns="http://www.w3.org/2000/svg"
 width="100.000000pt" height="78.000000pt" viewBox="0 0 100.000000 78.000000"
 preserveAspectRatio="xMidYMid meet">
<metadata>
Created by potrace 1.10, written by Peter Selinger 2001-2011
</metadata>
<g transform="translate(0.000000,78.000000) scale(0.100000,-0.100000)"
fill="#000000" stroke="none">
<path d="M279 746 c-11 -17 -22 -42 -26 -56 -3 -14 -9 -29 -13 -35 -4 -5 -4
-21 1 -34 7 -18 12 -22 21 -13 8 8 15 9 25 1 10 -9 15 -6 22 12 11 29 4 44
-14 29 -23 -19 -28 8 -7 38 31 43 59 64 84 64 58 -1 95 -15 138 -51 47 -40 47
-40 46 -14 -1 15 -8 29 -16 31 -13 5 -13 3 0 -14 9 -12 4 -10 -13 5 -28 25
-38 43 -12 21 8 -7 15 -8 15 -2 0 17 -29 35 -49 29 -12 -3 -18 0 -15 7 3 8
-21 12 -82 12 -86 1 -86 1 -105 -30z m41 10 c0 -2 -8 -10 -17 -17 -16 -13 -17
-12 -4 4 13 16 21 21 21 13z m-63 -138 c-3 -7 -5 -2 -5 12 0 14 2 19 5 13 2
-7 2 -19 0 -25z"/>
<path d="M685 760 c-4 -6 -10 -8 -15 -5 -4 3 -22 -11 -39 -30 -31 -36 -40 -68
-21 -80 6 -4 8 -9 6 -13 -11 -18 25 -46 65 -51 4 -1 9 -10 12 -21 3 -12 14
-20 25 -20 12 0 24 -5 27 -10 4 -6 12 -7 18 -4 9 5 9 4 0 -6 -9 -10 -8 -18 4
-36 8 -13 19 -22 23 -19 10 6 1 42 -21 82 -18 31 -18 32 1 38 11 4 20 14 20
24 0 10 7 24 15 31 19 15 19 34 1 49 -10 9 -16 7 -27 -5 -11 -13 -11 -19 0
-37 8 -12 10 -19 6 -14 -11 9 -46 -23 -39 -35 4 -6 -3 -5 -15 1 -16 9 -26 9
-42 0 -12 -6 -19 -7 -15 -1 3 5 -1 15 -9 22 -20 17 -19 74 1 91 18 15 72 13
92 -4 8 -6 16 -7 22 -1 12 12 -17 57 -30 49 -5 -3 -11 -1 -15 5 -3 5 -15 10
-25 10 -10 0 -22 -5 -25 -10z m38 -17 c-7 -2 -19 -2 -25 0 -7 3 -2 5 12 5 14
0 19 -2 13 -5z m-53 -6 c0 -2 -10 -12 -22 -23 l-23 -19 19 23 c18 21 26 27 26
19z m101 -14 c13 -16 12 -17 -3 -4 -10 7 -18 15 -18 17 0 8 8 3 21 -13z m-144
-65 c-3 -7 -5 -2 -5 12 0 14 2 19 5 13 2 -7 2 -19 0 -25z m170 0 c-3 -8 -6 -5
-6 6 -1 11 2 17 5 13 3 -3 4 -12 1 -19z m-146 -45 c13 -16 12 -17 -3 -4 -17
13 -22 21 -14 21 2 0 10 -8 17 -17z"/>
<path d="M342 708 c-15 -15 3 -39 24 -31 8 3 21 0 29 -7 11 -9 18 -10 28 -1
11 8 18 6 33 -12 l19 -22 -22 19 c-13 11 -23 14 -23 8 0 -16 30 -43 41 -37 19
12 8 34 -32 64 -39 28 -43 29 -65 14 -22 -14 -24 -14 -18 1 7 19 3 21 -14 4z"/>
<path d="M518 633 c-25 -6 -22 -30 4 -36 24 -7 48 8 48 29 0 14 -18 16 -52 7z
m37 -13 c-3 -5 -16 -10 -28 -9 -20 1 -20 2 3 9 14 4 26 8 28 9 2 1 0 -3 -3 -9z"/>
<path d="M983 608 c-23 -29 -37 -65 -39 -98 -1 -19 -4 -44 -6 -54 -5 -32 20
-29 41 5 20 33 26 124 8 112 -5 -3 -4 5 3 17 13 25 8 37 -7 18z"/>
<path d="M273 593 c3 -15 1 -20 -9 -16 -8 3 -18 -6 -24 -23 -9 -22 -8 -31 4
-43 20 -19 26 -13 37 40 7 30 7 45 -2 53 -9 8 -10 6 -6 -11z m-10 -43 c3 -11
1 -23 -4 -26 -5 -3 -9 6 -9 20 0 31 6 34 13 6z"/>
<path d="M672 538 c-7 -7 -12 -16 -12 -22 0 -17 34 -86 42 -86 4 0 8 -6 8 -13
0 -8 11 -23 23 -36 20 -18 26 -19 35 -8 9 11 4 21 -23 46 -34 31 -39 43 -36
87 3 28 -21 48 -37 32z m15 -40 c-3 -7 -5 -2 -5 12 0 14 2 19 5 13 2 -7 2 -19
0 -25z m58 -98 c10 -11 16 -20 13 -20 -3 0 -13 9 -23 20 -10 11 -16 20 -13 20
3 0 13 -9 23 -20z"/>
<path d="M881 479 c-13 -10 -29 -19 -36 -19 -7 0 -18 -6 -24 -14 -9 -10 -8
-16 3 -25 12 -10 23 -8 55 11 45 26 56 42 38 56 -8 7 -19 4 -36 -9z m29 -3 c0
-2 -8 -10 -17 -17 -16 -13 -17 -12 -4 4 13 16 21 21 21 13z m-63 -42 c-3 -3
-12 -4 -19 -1 -8 3 -5 6 6 6 11 1 17 -2 13 -5z"/>
<path d="M299 461 c-16 -12 -24 -28 -23 -48 1 -41 11 -56 28 -40 8 6 12 16 9
21 -3 4 -9 2 -14 -5 -5 -8 -9 -9 -9 -4 1 28 62 65 75 45 3 -5 16 -7 29 -6 17
2 23 -1 19 -10 -3 -8 -1 -14 4 -14 5 0 24 -14 42 -30 32 -30 51 -34 58 -14 2
5 -6 20 -18 32 -15 17 -24 20 -34 12 -9 -7 -16 -6 -26 7 -13 16 -12 17 4 4 9
-7 17 -9 17 -4 0 15 -23 33 -41 33 -9 0 -22 7 -29 15 -7 8 -16 13 -20 10 -5
-3 -11 -1 -15 5 -9 15 -30 12 -56 -9z m48 -7 c-3 -3 -12 -4 -19 -1 -8 3 -5 6
6 6 11 1 17 -2 13 -5z m-44 -19 c-3 -9 -8 -14 -10 -11 -3 3 -2 9 2 15 9 16 15
13 8 -4z m192 -65 c10 -11 16 -20 13 -20 -3 0 -13 9 -23 20 -10 11 -16 20 -13
20 3 0 13 -9 23 -20z"/>
<path d="M881 406 c-8 -10 -8 -16 2 -25 14 -11 27 -6 27 11 0 5 -6 6 -12 2 -9
-5 -9 -2 1 9 7 9 9 17 3 17 -5 0 -15 -6 -21 -14z"/>
<path d="M782 378 c-16 -16 3 -38 33 -38 30 0 49 22 33 38 -7 7 -21 12 -33 12
-12 0 -26 -5 -33 -12z m51 -15 c-7 -2 -21 -2 -30 0 -10 3 -4 5 12 5 17 0 24
-2 18 -5z"/>
<path d="M304 333 c-23 -24 -23 -28 -9 -42 15 -15 18 -14 36 8 20 25 26 61 9
61 -6 0 -22 -12 -36 -27z m17 -16 l-24 -22 19 27 c10 14 21 24 23 22 3 -3 -6
-15 -18 -27z"/>
<path d="M545 309 c-9 -14 25 -50 39 -42 6 4 5 -1 -3 -10 -11 -14 -11 -20 0
-34 8 -10 9 -14 2 -10 -6 4 -15 3 -18 -3 -11 -18 -82 -59 -109 -64 -14 -3 -30
-7 -35 -10 -5 -4 -12 -3 -15 2 -3 5 8 16 25 26 16 9 27 21 24 26 -6 9 -111
-31 -151 -57 -13 -8 -24 -12 -24 -8 0 5 -9 0 -20 -10 -15 -14 -17 -21 -9 -32
17 -19 57 -16 71 6 11 18 13 18 24 3 10 -14 15 -14 45 -1 19 7 39 14 44 15 6
0 13 2 18 4 4 1 12 4 17 5 6 1 12 4 15 5 3 1 9 3 13 4 33 5 82 44 96 78 18 40
15 70 -12 101 -17 20 -28 22 -37 6z m26 -16 c13 -16 12 -17 -3 -4 -17 13 -22
21 -14 21 2 0 10 -8 17 -17z m9 -97 c0 -2 -8 -10 -17 -17 -16 -13 -17 -12 -4
4 13 16 21 21 21 13z m-270 -102 c0 -2 -11 -3 -24 -2 -14 1 -23 5 -20 9 4 7
44 0 44 -7z m67 10 c-3 -3 -12 -4 -19 -1 -8 3 -5 6 6 6 11 1 17 -2 13 -5z"/>
<path d="M436 282 c-4 -3 2 -14 11 -25 10 -11 18 -28 18 -40 0 -28 21 -33 35
-7 9 17 8 26 -4 44 -15 23 -50 39 -60 28z m50 -70 c-17 -16 -18 -16 -5 5 7 12
15 20 18 17 3 -2 -3 -12 -13 -22z"/>
<path d="M405 268 c-9 -22 4 -43 17 -30 7 7 7 16 0 29 -10 17 -11 17 -17 1z"/>
<path d="M337 222 c-15 -10 -25 -22 -23 -28 3 -7 -3 -10 -12 -8 -21 5 -115
-53 -107 -66 3 -6 -1 -7 -10 -4 -10 4 -26 -3 -41 -16 -13 -13 -24 -20 -24 -15
0 5 -11 -2 -25 -15 -14 -13 -25 -20 -25 -16 0 5 -7 3 -15 -4 -8 -7 -12 -17 -9
-22 4 -6 -3 -5 -15 1 -17 10 -22 9 -27 -4 -4 -9 -4 -19 0 -22 3 -4 6 0 6 8 0
11 2 11 8 1 11 -17 62 1 62 22 0 10 7 13 20 11 13 -3 24 3 28 13 4 9 16 17 26
17 11 0 21 6 24 14 3 9 0 11 -8 6 -8 -5 -11 -4 -7 2 4 6 17 9 29 6 28 -4 193
95 193 116 0 21 -16 21 -48 3z"/>
<path d="M156 184 c-13 -12 -14 -19 -5 -30 16 -19 26 -18 38 5 15 28 -11 48
-33 25z"/>
</g>
</svg>
